# xmcd CD database file generated by OrangeCD 4.2
#
# Track frame offsets:
#	150
#	46075
#	82522
#	108787
#
# Disc length: 2766 seconds
#
# Revision: 2
# Processed by: cddbd v1.4PL0 Copyright (c) Steve Scherf et al.
# Submitted via: OrangeCD 4.2
#
DISCID=190acc04
DTITLE=John Coltrane - Afro Blue Impressions
DYEAR=1977
DGENRE=Blues
TTITLE0=Lonnie's Lament
TTITLE1=Naima
TTITLE2=Chasin' the Trane
TTITLE3=My Favorite Things
EXTD=
EXTT0=
EXTT1=
EXTT2=
EXTT3=
PLAYORDER=
